<mxfile host="app.diagrams.net" modified="2023-09-12T07:22:44.295Z" agent="Mozilla/5.0 (Windows NT 10.0; Win64; x64) AppleWebKit/537.36 (KHTML, like Gecko) Chrome/116.0.0.0 Safari/537.36" version="21.7.4" etag="KRCYi9cUumx9PoGkD9Pj" type="github">
  <diagram name="Page-1" id="5i9BgO_tMaiidFO3S5mh">
    <mxGraphModel>
      <root>
        <mxCell id="0" />
        <mxCell id="1" parent="0" />
      </root>
    </mxGraphModel>
  </diagram>
</mxfile>
